<svg width="512" height="512" viewBox="0 0 512 512" xmlns="http://www.w3.org/2000/svg">
  <!-- apcore-mcp: Pure Mascot Fusion (Natural Overlay with Smile) -->
  <defs>
    <radialGradient id="jelly_bellGrad" cx="50%" cy="45%" r="50%">
      <stop offset="0%" stop-color="#818CF8"/>
      <stop offset="100%" stop-color="#4338CA"/>
    </radialGradient>
    <linearGradient id="jelly_tentGrad" x1="0" y1="0" x2="0" y2="1">
      <stop offset="0%" stop-color="#6366F1"/>
      <stop offset="100%" stop-color="#4F46E5" stop-opacity="0"/>
    </linearGradient>
    <radialGradient id="mcp_bodyGrad" cx="50%" cy="40%" r="55%">
      <stop offset="0%" stop-color="#F472B6"/>
      <stop offset="100%" stop-color="#9D174D"/>
    </radialGradient>
    <linearGradient id="mcp_tentGrad" x1="0" y1="1" x2="0" y2="0">
      <stop offset="0%" stop-color="#EC4899"/>
      <stop offset="100%" stop-color="#FBCFE8" stop-opacity="0.3"/>
    </linearGradient>
  </defs>

  <!-- 1. PENDANT: Mini Anemone -->
  <g transform="translate(122, 230) scale(0.525)">
    <path d="M 196,255 C 160,200 120,150 100,90" stroke="url(#mcp_tentGrad)" stroke-width="20" fill="none" stroke-linecap="round"/>
    <path d="M 215,245 C 190,180 160,120 150,70" stroke="url(#mcp_tentGrad)" stroke-width="18" fill="none" stroke-linecap="round"/>
    <path d="M 235,240 C 220,180 210,120 210,60" stroke="url(#mcp_tentGrad)" stroke-width="16" fill="none" stroke-linecap="round"/>
    <path d="M 256,238 C 256,170 256,110 256,50" stroke="url(#mcp_tentGrad)" stroke-width="16" fill="none" stroke-linecap="round"/>
    <path d="M 277,240 C 290,180 300,120 300,60" stroke="url(#mcp_tentGrad)" stroke-width="16" fill="none" stroke-linecap="round"/>
    <path d="M 297,245 C 320,180 350,120 360,70" stroke="url(#mcp_tentGrad)" stroke-width="18" fill="none" stroke-linecap="round"/>
    <path d="M 316,255 C 350,200 390,150 410,90" stroke="url(#mcp_tentGrad)" stroke-width="20" fill="none" stroke-linecap="round"/>
    <path d="M 170,258 C 170,252 195,240 256,240 C 317,240 342,252 342,258 L 352,425 C 352,450 322,468 256,468 C 190,468 160,450 160,425 Z" fill="url(#mcp_bodyGrad)"/>
    <!-- Eyes -->
    <circle cx="224" cy="340" r="28" fill="white"/>
    <circle cx="288" cy="340" r="28" fill="white"/>
    <circle cx="230" cy="346" r="16" fill="#1E1B4B"/>
    <circle cx="294" cy="346" r="16" fill="#1E1B4B"/>
    <!-- SMILE (RESTORED) -->
    <path d="M 241,377 Q 256,393 271,377" stroke="#4C0519" stroke-width="4" fill="none" stroke-linecap="round"/>
  </g>

  <!-- 2. MAIN: Jellyfish -->
  <g transform="translate(0, -70)">
    <path d="M 175,300 C 160,350 145,390 155,430 Q 162,455 150,470" stroke="url(#jelly_tentGrad)" stroke-width="8" fill="none" stroke-linecap="round"/>
    <path d="M 210,310 C 200,360 188,400 195,445 Q 200,465 190,480" stroke="url(#jelly_tentGrad)" stroke-width="7" fill="none" stroke-linecap="round"/>
    <path d="M 245,310 C 240,365 235,410 242,455 Q 248,475 240,490" stroke="url(#jelly_tentGrad)" stroke-width="6" fill="none" stroke-linecap="round"/>
    <path d="M 267,310 C 272,365 277,410 270,455 Q 264,475 272,490" stroke="url(#jelly_tentGrad)" stroke-width="6" fill="none" stroke-linecap="round"/>
    <path d="M 302,310 C 312,360 324,400 317,445 Q 312,465 322,480" stroke="url(#jelly_tentGrad)" stroke-width="7" fill="none" stroke-linecap="round"/>
    <path d="M 337,300 C 352,350 367,390 357,430 Q 350,455 362,470" stroke="url(#jelly_tentGrad)" stroke-width="8" fill="none" stroke-linecap="round"/>
    <path d="M 130,290 C 130,150 190,80 256,80 C 322,80 382,150 382,290 Q 382,310 256,310 Q 130,310 130,290 Z" fill="url(#jelly_bellGrad)"/>
    <circle cx="222" cy="215" r="23" fill="white"/>
    <circle cx="290" cy="215" r="23" fill="white"/>
    <circle cx="228" cy="220" r="13" fill="#1E1B4B"/>
    <circle cx="296" cy="220" r="13" fill="#1E1B4B"/>
    <path d="M 240,252 Q 256,268 272,252" stroke="#312E81" stroke-width="3.5" fill="none" stroke-linecap="round"/>
  </g>
</svg>
